<svg width="153" height="26" viewBox="0 0 153 26" fill="none" xmlns="http://www.w3.org/2000/svg">
    <path d="M61.916 18.74V8.7h1.749v8.49h4.776v1.55h-6.525zM78.834 18.74l-.732-1.927h-4.723l-.732 1.927h-1.913L74.65 8.7h2.181l3.916 10.04h-1.913zm-3.094-8.55-1.868 5.073h3.737L75.74 10.19zM103.039 18.74l-1.942-7.406-1.928 7.406H97.3L94.446 8.7h1.958l1.943 7.737 2.062-7.737h1.39l2.062 7.737 1.928-7.737h1.958l-2.84 10.04h-1.868zM111.179 18.74V8.7h1.749v10.04h-1.749zM124.443 18.74l-5.201-7.316v7.316h-1.749V8.7h1.794l5.096 7.12V8.7h1.748v10.04h-1.688zM130.3 18.74V8.7h3.707c3.108 0 5.215 2.077 5.215 5.027 0 2.951-2.107 5.013-5.215 5.013H130.3zm1.749-1.55h1.958c2.167 0 3.422-1.566 3.422-3.463 0-1.941-1.196-3.477-3.422-3.477h-1.958v6.94zM53.73 8.534c-2.847 0-5.155 2.325-5.155 5.194 0 2.868 2.308 5.193 5.156 5.193s5.156-2.325 5.156-5.193c0-2.869-2.308-5.194-5.156-5.194zm0 8.633c-1.885 0-3.414-1.54-3.414-3.44 0-1.899 1.529-3.44 3.415-3.44 1.886 0 3.415 1.541 3.415 3.44 0 1.9-1.529 3.44-3.415 3.44zM90.303 15.59l-.015-.024-.01-.015-.465-.755h-.002l-.092-.148c.98-.368 1.814-1.288 1.814-2.802 0-1.852-1.286-3.146-3.259-3.146h-4.379v10.04h1.75v-3.748h2.374l2.212 3.748h2.018l-1.946-3.15zm-4.659-2.149V10.25h2.391c.987 0 1.704.632 1.704 1.596 0 .963-.717 1.595-1.704 1.595h-2.39zM42.534 12.704c-1.18-.301-2.197-.557-2.197-1.34 0-.753.657-1.25 1.689-1.25.988 0 1.986.328 2.749 1.023l1.099-1.138.037-.05c-.926-.903-2.182-1.4-3.736-1.4-2.182 0-3.632 1.28-3.632 2.936 0 2.122 1.913 2.604 3.542 3.01 1.21.316 2.272.587 2.272 1.49 0 .663-.568 1.37-2.003 1.37a4.267 4.267 0 0 1-2.967-1.198l-1.142 1.184c.881.94 2.207 1.58 4.035 1.58 2.69 0 3.855-1.43 3.855-3.101 0-2.183-1.957-2.695-3.601-3.116zM146.145 12.704c-1.181-.301-2.197-.557-2.197-1.34 0-.753.657-1.25 1.688-1.25.988 0 1.987.328 2.749 1.023l1.099-1.138.038-.05c-.927-.903-2.182-1.4-3.736-1.4-2.182 0-3.632 1.28-3.632 2.936 0 2.122 1.913 2.604 3.542 3.01 1.211.316 2.272.587 2.272 1.49 0 .663-.568 1.37-2.003 1.37a4.266 4.266 0 0 1-2.967-1.198l-1.143 1.184c.882.94 2.207 1.58 4.035 1.58 2.691 0 3.856-1.43 3.856-3.101 0-2.183-1.958-2.695-3.601-3.116zM151.62 9.545h-.215v.373h-.122v-.923h.303c.103 0 .183.024.238.071.056.048.084.116.084.207a.249.249 0 0 1-.047.15.274.274 0 0 1-.128.096l.215.391v.008h-.13l-.198-.373zm-.215-.1h.185c.06 0 .108-.016.143-.047a.157.157 0 0 0 .053-.126c0-.057-.017-.1-.05-.13a.215.215 0 0 0-.146-.047h-.185v.35z" fill="#FF6200"/>
    <path d="M151.561 10.27a.791.791 0 0 1-.787-.794.79.79 0 0 1 .787-.793c.435 0 .788.356.788.793a.791.791 0 0 1-.788.793zm0-1.474a.679.679 0 0 0-.675.68c0 .375.303.68.675.68a.679.679 0 0 0 .676-.68.679.679 0 0 0-.676-.68zM20.331 24.036h-.381v1.068h-.156v-1.068h-.381v-.13h.918v.13zM20.715 23.907l.388.976.389-.976h.203v1.197h-.157v-.466l.015-.504-.39.97h-.12l-.39-.967.016.5v.467h-.157v-1.197h.203zM14.834 11.89l.268-.076c1.98-.562 3.907-1.341 5.821-2.148 1.874-.79 3.728-1.739 5.356-3.074 1.671-1.369 3.015-3.143 3.757-5.343.105-.306.318-.747.339-1.083C27.773 3.75 17.45 4.12 17.45 4.12l2.436-2.251C10.093 1.888 3.259 6.074.128 8.313a18.542 18.542 0 0 1 10.474 4.717c1.397-.436 2.823-.75 4.232-1.14zM31.017 11.537s-9.525-.733-19.419 2.476a18.83 18.83 0 0 1 3.267 4.693c5.202-2.916 12.416-6.643 16.152-7.169zM15.525 20.203a18.806 18.806 0 0 1 1.177 4.963l9.067-9.393-10.244 4.43z" fill="#FF6200"/>
</svg>
